G04*
G04 #@! TF.GenerationSoftware,Altium Limited,Altium Designer,21.0.9 (235)*
G04*
G04 Layer_Color=16711935*
%FSLAX25Y25*%
%MOIN*%
G70*
G04*
G04 #@! TF.SameCoordinates,43861E83-1D47-4714-A818-AF3DA279242D*
G04*
G04*
G04 #@! TF.FilePolarity,Negative*
G04*
G01*
G75*
%ADD11C,0.00394*%
%ADD38R,0.34265X0.34265*%
%ADD55C,0.06312*%
%ADD56C,0.10249*%
%ADD57C,0.15761*%
%ADD58R,0.06312X0.06312*%
%ADD59C,0.06706*%
%ADD60R,0.06706X0.06706*%
%ADD61C,0.05918*%
%ADD62R,0.05918X0.05918*%
%ADD63O,0.05524X0.10249*%
%ADD64O,0.04737X0.09068*%
%ADD65C,0.03753*%
%ADD66R,0.07874X0.09449*%
%ADD67O,0.07874X0.09449*%
%ADD68O,0.07087X0.08661*%
%ADD69R,0.07087X0.08661*%
%ADD70C,0.05524*%
%ADD71C,0.09461*%
%ADD72O,0.12611X0.16548*%
%ADD73C,0.20485*%
%ADD74O,0.08674X0.07887*%
%ADD75R,0.08674X0.07887*%
%ADD76O,0.20485X0.08674*%
%ADD77O,0.08674X0.20485*%
%ADD78C,0.02375*%
D11*
X386890Y574803D02*
G03*
X381890Y569803I0J-5000D01*
G01*
X724409D02*
G03*
X719410Y574803I-5000J0D01*
G01*
X381890Y240158D02*
G03*
X385827Y236221I3937J0D01*
G01*
X719410D02*
G03*
X724409Y241220I0J5000D01*
G01*
X381890Y565866D02*
Y569803D01*
X724409Y565866D02*
Y569803D01*
Y413386D02*
Y565866D01*
X386890Y574803D02*
X719410D01*
X381890Y385827D02*
Y565866D01*
Y240158D02*
Y244094D01*
X385827Y236221D02*
X390827D01*
X692913D02*
X719410D01*
X724409Y241220D02*
Y417323D01*
X381890Y241220D02*
Y385827D01*
X390827Y236221D02*
X692913D01*
D38*
X677953Y372441D02*
D03*
D55*
X445276Y296457D02*
D03*
X425591D02*
D03*
X479153Y279882D02*
D03*
X484154Y289724D02*
D03*
X494153D02*
D03*
X489153Y279724D02*
D03*
X504153Y289724D02*
D03*
X499154Y279724D02*
D03*
X509154D02*
D03*
X551594Y280276D02*
D03*
X556595Y290118D02*
D03*
X566595D02*
D03*
X561594Y280118D02*
D03*
X576594Y290118D02*
D03*
X571594Y280118D02*
D03*
X581595D02*
D03*
D56*
X465945Y242520D02*
D03*
X527362D02*
D03*
X538386Y242913D02*
D03*
X599803D02*
D03*
D57*
X518898Y254724D02*
D03*
X474409D02*
D03*
X591339Y255118D02*
D03*
X546850D02*
D03*
D58*
X514153Y289724D02*
D03*
X586594Y290118D02*
D03*
D59*
X399213Y479134D02*
D03*
Y544095D02*
D03*
X702362Y429134D02*
D03*
X708268Y260630D02*
D03*
X399213Y399213D02*
D03*
D60*
X399213Y488976D02*
D03*
Y553937D02*
D03*
X702362Y419291D02*
D03*
X708268Y250787D02*
D03*
X399213Y409055D02*
D03*
D61*
X448425Y534488D02*
D03*
X435827D02*
D03*
X427165D02*
D03*
X418504D02*
D03*
Y554488D02*
D03*
X427165D02*
D03*
X435827D02*
D03*
D62*
X448425D02*
D03*
D63*
X494449Y568701D02*
D03*
X528465D02*
D03*
D64*
X494449Y552362D02*
D03*
X528465D02*
D03*
D65*
X522835Y554331D02*
D03*
X500079D02*
D03*
D66*
X570236Y560236D02*
D03*
D67*
X560236D02*
D03*
X540236D02*
D03*
X550236D02*
D03*
D68*
X583465Y564567D02*
D03*
X593465D02*
D03*
X583543Y551968D02*
D03*
X593543D02*
D03*
D69*
X603465Y564567D02*
D03*
X603543Y551968D02*
D03*
D70*
X622835Y558071D02*
D03*
X615748D02*
D03*
X420276Y246850D02*
D03*
Y253937D02*
D03*
X445669Y246850D02*
D03*
Y253937D02*
D03*
D71*
X666535Y553543D02*
D03*
X681496D02*
D03*
X651575D02*
D03*
D72*
X694882Y565354D02*
D03*
X638189D02*
D03*
D73*
X712598Y334646D02*
D03*
X480315Y559055D02*
D03*
X712598D02*
D03*
X468504Y307087D02*
D03*
X393701Y251969D02*
D03*
D74*
X459842Y425276D02*
D03*
X709842Y475276D02*
D03*
Y465276D02*
D03*
Y455276D02*
D03*
Y445276D02*
D03*
X459842Y435276D02*
D03*
Y445276D02*
D03*
Y455276D02*
D03*
Y465276D02*
D03*
Y475276D02*
D03*
Y485276D02*
D03*
Y495276D02*
D03*
D75*
X709842Y485276D02*
D03*
X459842Y505276D02*
D03*
D76*
X670472Y245669D02*
D03*
Y271654D02*
D03*
D77*
X688189Y258661D02*
D03*
D78*
X664696Y359048D02*
D03*
X671260Y359449D02*
D03*
X677559D02*
D03*
X683858D02*
D03*
X690158D02*
D03*
X690422Y366149D02*
D03*
X684123D02*
D03*
X677823D02*
D03*
X671524D02*
D03*
X664961Y365748D02*
D03*
X665225Y378748D02*
D03*
X671788Y379149D02*
D03*
X678088D02*
D03*
X684387D02*
D03*
X690686D02*
D03*
X690422Y372448D02*
D03*
X684123D02*
D03*
X677823D02*
D03*
X671524D02*
D03*
X664961Y372047D02*
D03*
X690422Y385047D02*
D03*
X684123D02*
D03*
X677823D02*
D03*
X671524D02*
D03*
X664961Y384646D02*
D03*
M02*
