G04*
G04 #@! TF.GenerationSoftware,Altium Limited,Altium Designer,21.0.9 (235)*
G04*
G04 Layer_Color=255*
%FSLAX25Y25*%
%MOIN*%
G70*
G04*
G04 #@! TF.SameCoordinates,43861E83-1D47-4714-A818-AF3DA279242D*
G04*
G04*
G04 #@! TF.FilePolarity,Positive*
G04*
G01*
G75*
%ADD11C,0.00394*%
%ADD68O,0.07087X0.08661*%
%ADD69R,0.07087X0.08661*%
%ADD100R,0.33465X0.33465*%
%ADD121C,0.05512*%
%ADD122C,0.09449*%
%ADD123C,0.14961*%
%ADD124R,0.05512X0.05512*%
%ADD125C,0.05906*%
%ADD126R,0.05906X0.05906*%
%ADD127C,0.05118*%
%ADD128R,0.05118X0.05118*%
%ADD129O,0.04724X0.09449*%
%ADD130O,0.03937X0.08268*%
%ADD131C,0.02953*%
%ADD132O,0.06299X0.07874*%
%ADD133R,0.06299X0.07874*%
%ADD134C,0.04724*%
%ADD135C,0.08661*%
%ADD136O,0.11811X0.15748*%
%ADD137C,0.19685*%
%ADD138O,0.07874X0.07087*%
%ADD139R,0.07874X0.07087*%
%ADD140O,0.19685X0.07874*%
%ADD141O,0.07874X0.19685*%
D11*
X386890Y574803D02*
G03*
X381890Y569803I0J-5000D01*
G01*
X724409D02*
G03*
X719410Y574803I-5000J0D01*
G01*
X381890Y240158D02*
G03*
X385827Y236221I3937J0D01*
G01*
X719410D02*
G03*
X724409Y241220I0J5000D01*
G01*
X381890Y565866D02*
Y569803D01*
X724409Y565866D02*
Y569803D01*
Y413386D02*
Y565866D01*
X386890Y574803D02*
X719410D01*
X381890Y385827D02*
Y565866D01*
Y240158D02*
Y244094D01*
X385827Y236221D02*
X390827D01*
X692913D02*
X719410D01*
X724409Y241220D02*
Y417323D01*
X381890Y241220D02*
Y385827D01*
X390827Y236221D02*
X692913D01*
D68*
X560236Y560236D02*
D03*
X540236D02*
D03*
X550236D02*
D03*
D69*
X570236D02*
D03*
D100*
X677953Y372441D02*
D03*
D121*
X445276Y296457D02*
D03*
X425591D02*
D03*
X479153Y279882D02*
D03*
X484154Y289724D02*
D03*
X494153D02*
D03*
X489153Y279724D02*
D03*
X504153Y289724D02*
D03*
X499154Y279724D02*
D03*
X509154D02*
D03*
X551594Y280276D02*
D03*
X556595Y290118D02*
D03*
X566595D02*
D03*
X561594Y280118D02*
D03*
X576594Y290118D02*
D03*
X571594Y280118D02*
D03*
X581595D02*
D03*
D122*
X465945Y242520D02*
D03*
X527362D02*
D03*
X538386Y242913D02*
D03*
X599803D02*
D03*
D123*
X518898Y254724D02*
D03*
X474409D02*
D03*
X591339Y255118D02*
D03*
X546850D02*
D03*
D124*
X514153Y289724D02*
D03*
X586594Y290118D02*
D03*
D125*
X399213Y479134D02*
D03*
Y544095D02*
D03*
X702362Y429134D02*
D03*
X708268Y260630D02*
D03*
X399213Y399213D02*
D03*
D126*
X399213Y488976D02*
D03*
Y553937D02*
D03*
X702362Y419291D02*
D03*
X708268Y250787D02*
D03*
X399213Y409055D02*
D03*
D127*
X448425Y534488D02*
D03*
X435827D02*
D03*
X427165D02*
D03*
X418504D02*
D03*
Y554488D02*
D03*
X427165D02*
D03*
X435827D02*
D03*
D128*
X448425D02*
D03*
D129*
X494449Y568701D02*
D03*
X528465D02*
D03*
D130*
X494449Y552362D02*
D03*
X528465D02*
D03*
D131*
X522835Y554331D02*
D03*
X500079D02*
D03*
D132*
X583465Y564567D02*
D03*
X593465D02*
D03*
X583543Y551968D02*
D03*
X593543D02*
D03*
D133*
X603465Y564567D02*
D03*
X603543Y551968D02*
D03*
D134*
X622835Y558071D02*
D03*
X615748D02*
D03*
X420276Y246850D02*
D03*
Y253937D02*
D03*
X445669Y246850D02*
D03*
Y253937D02*
D03*
D135*
X666535Y553543D02*
D03*
X681496D02*
D03*
X651575D02*
D03*
D136*
X694882Y565354D02*
D03*
X638189D02*
D03*
D137*
X712598Y334646D02*
D03*
X480315Y559055D02*
D03*
X712598D02*
D03*
X468504Y307087D02*
D03*
X393701Y251969D02*
D03*
D138*
X459842Y425276D02*
D03*
X709842Y475276D02*
D03*
Y465276D02*
D03*
Y455276D02*
D03*
Y445276D02*
D03*
X459842Y435276D02*
D03*
Y445276D02*
D03*
Y455276D02*
D03*
Y465276D02*
D03*
Y475276D02*
D03*
Y485276D02*
D03*
Y495276D02*
D03*
D139*
X709842Y485276D02*
D03*
X459842Y505276D02*
D03*
D140*
X670472Y245669D02*
D03*
Y271654D02*
D03*
D141*
X688189Y258661D02*
D03*
M02*
