G04*
G04 #@! TF.GenerationSoftware,Altium Limited,Altium Designer,21.0.9 (235)*
G04*
G04 Layer_Color=65535*
%FSLAX25Y25*%
%MOIN*%
G70*
G04*
G04 #@! TF.SameCoordinates,43861E83-1D47-4714-A818-AF3DA279242D*
G04*
G04*
G04 #@! TF.FilePolarity,Positive*
G04*
G01*
G75*
%ADD11C,0.00394*%
D11*
X386890Y574803D02*
G03*
X381890Y569803I0J-5000D01*
G01*
X724409D02*
G03*
X719410Y574803I-5000J0D01*
G01*
X381890Y240158D02*
G03*
X385827Y236221I3937J0D01*
G01*
X719410D02*
G03*
X724409Y241220I0J5000D01*
G01*
X381890Y565866D02*
Y569803D01*
X724409Y565866D02*
Y569803D01*
Y413386D02*
Y565866D01*
X386890Y574803D02*
X719410D01*
X381890Y385827D02*
Y565866D01*
Y240158D02*
Y244094D01*
X385827Y236221D02*
X390827D01*
X692913D02*
X719410D01*
X724409Y241220D02*
Y417323D01*
X381890Y241220D02*
Y385827D01*
X390827Y236221D02*
X692913D01*
X386890Y574803D02*
G03*
X381890Y569803I0J-5000D01*
G01*
X724409D02*
G03*
X719410Y574803I-5000J0D01*
G01*
X381890Y240158D02*
G03*
X385827Y236221I3937J0D01*
G01*
X719410D02*
G03*
X724409Y241220I0J5000D01*
G01*
X381890Y565866D02*
Y569803D01*
X724409Y565866D02*
Y569803D01*
Y413386D02*
Y565866D01*
X386890Y574803D02*
X719410D01*
X381890Y385827D02*
Y565866D01*
Y240158D02*
Y244094D01*
X385827Y236221D02*
X390827D01*
X692913D02*
X719410D01*
X724409Y241220D02*
Y417323D01*
X381890Y241220D02*
Y385827D01*
X390827Y236221D02*
X692913D01*
M02*
