M48
;Layer_Color=9474304
;FILE_FORMAT=2:5
INCH,LZ
;TYPE=PLATED
T1F00S00C0.01181
T2F00S00C0.01575
T3F00S00C0.02362
T5F00S00C0.02953
T6F00S00C0.03150
T8F00S00C0.03543
T9F00S00C0.03937
T10F00S00C0.04724
T11F00S00C0.06220
T13F00S00C0.12205
T14F00S00C0.13780
%
T01
X0650394Y0279921
X0650787Y029685
X0651575Y030748
X0705118Y027441
X0719685Y0273622
X0606693Y0276772
X0600394Y0301575
X0604331Y0337008
X0577165Y0365354
X0566929Y037126
X0559842Y0398425
X0562205Y0401181
X0564567Y0408661
X0575197Y0423622
X0592913Y0426772
X0611024Y0438583
X061063Y0409842
X0580315Y0397244
X0533071Y0396063
X0535039Y0394094
X0537008Y0391732
X0527165Y0402362
X0525197Y0404331
X0529134Y040748
X0531102Y041063
X0540551Y0421654
X053937Y0432677
X0542126Y0433071
X0537795Y0435039
X0530709Y0437795
X0536221Y0449606
X0541339Y0451181
X0538189Y0454331
X0540158Y0457874
X0542028Y0460138
X0546063Y0466929
X0548425Y046811
X0572047Y0462992
X0566535Y0445276
X056811Y0441339
X0566142Y043937
X0560236Y0451181
X0521654Y0461024
X0520079Y0466535
X0511024Y0451575
X0516535Y0423622
X0516142Y0393701
X0470079Y0350787
X0469882Y0466339
X0630315Y0393307
X0652756Y0390158
X0647638Y0407874
X0677953
X0690551Y0408661
X0701575Y0404331
X0713779Y0387008
X066811Y0487402
X066063
X0653937Y048937
X0631496Y0494882
X0654331Y0533465
X0608661Y0537795
X060315Y0524409
X0617323Y0513779
X0602362Y0496457
X0577165Y0497638
X0583071Y0508268
X0562205Y0506693
X0554331Y049685
X0552362Y0483071
X056063Y0476772
X0564961Y0473228
X0556299Y0470079
X0550394Y0469745
X0530315Y0472441
X0519709Y0473258
X051811Y047126
X0520079Y0469291
X0519823Y0477047
X0517717Y0475197
X052126Y0481496
X0529134Y0494488
X0516142Y0506693
X05Y0499606
X054252Y0507087
X0551181Y0516142
X0581496Y0530315
X0607087Y0474409
X0475197Y0473622
X0474016Y0469291
X0471654Y0471654
X047126Y0476378
X0469685Y0479528
T02
X0487402Y029685
X0458661Y026811
X0431102
X0443898Y0337205
X0435827Y0438976
X0596063Y0379134
X0591732Y0336614
X0553543Y0329528
X0664696Y0359048
X067126Y0359449
X0677559
X0683858
X0690158
X0690422Y0366149
Y0372448
X0684123
Y0366149
X0677823
X0671524
Y0372448
X0677823
X0678088Y0379149
X0677823Y0385047
X0684123
X0684387Y0379149
X0690686
X0690422Y0385047
X0671524
X0671788Y0379149
X0665225Y0378748
X0664961Y0384646
Y0372047
Y0365748
X0637008Y0413779
X0523228Y0514567
X0522441Y0541732
X0501968
X0466142Y0516929
X0438189Y0500394
T03
X0705512Y0304724
X0488189Y0266929
X0390945Y0464961
X0430315Y047126
T05
X0500079Y0554331
X0522835
T06
X0418504Y0534488
X0427165
X0435827
X0448425
Y0554488
X0435827
X0427165
X0418504
T08
X0479153Y0279882
X0489153Y0279724
X0499154
X0509154
X0504153Y0289724
X0494153
X0484154
X0514153
X0556595Y0290118
X0566595
X0576594
X0586594
X0581595Y0280118
X0571594
X0561594
X0551594Y0280276
X0445276Y0296457
X0425591
X0420276Y0253937
Y024685
X0445669
Y0253937
X0459842Y0425276
Y0435276
Y0445276
Y0455276
Y0465276
X0709842
Y0455276
Y0445276
Y0475276
Y0485276
X0622835Y0558071
X0615748
X0603543Y0551968
X0593543
X0583543
X0583465Y0564567
X0593465
X0603465
X0459842Y0505276
Y0495276
Y0485276
Y0475276
T09
X0708268Y0250787
Y026063
X0399213Y0399213
Y0409055
X0702362Y0419291
Y0429134
X0570236Y0560236
X0560236
X0550236
X0540236
X0399213Y0553937
Y0544095
Y0488976
Y0479134
T10
X0651575Y0553543
X0666535
X0681496
T11
X0527362Y024252
X0538386Y0242913
X0599803
X0465945Y024252
T13
X0393701Y0251969
X0468504Y0307087
X0712598Y0334646
Y0559055
X0480315
T14
X0474409Y0254724
X0518898
X054685Y0255118
X0591339
M30
