G04*
G04 #@! TF.GenerationSoftware,Altium Limited,Altium Designer,21.0.9 (235)*
G04*
G04 Layer_Color=8388736*
%FSLAX25Y25*%
%MOIN*%
G70*
G04*
G04 #@! TF.SameCoordinates,43861E83-1D47-4714-A818-AF3DA279242D*
G04*
G04*
G04 #@! TF.FilePolarity,Negative*
G04*
G01*
G75*
%ADD11C,0.00394*%
%ADD18R,0.04737X0.04737*%
%ADD19R,0.16548X0.20485*%
%ADD20R,0.10642X0.05524*%
%ADD21O,0.06706X0.03162*%
%ADD22R,0.06706X0.03162*%
%ADD23R,0.04737X0.04737*%
%ADD24R,0.04737X0.05524*%
%ADD25R,0.07887X0.10642*%
%ADD26O,0.03162X0.06706*%
%ADD27R,0.03162X0.06706*%
%ADD28R,0.04343X0.04737*%
%ADD29R,0.10642X0.07887*%
%ADD30R,0.04343X0.04343*%
%ADD31R,0.04343X0.05524*%
%ADD32R,0.01981X0.07493*%
%ADD33R,0.03359X0.07493*%
%ADD34R,0.08674X0.06312*%
%ADD35R,0.03162X0.07099*%
%ADD36O,0.03162X0.07099*%
%ADD37R,0.07099X0.12611*%
%ADD38R,0.34265X0.34265*%
%ADD39R,0.14580X0.16548*%
%ADD40R,0.15367X0.08674*%
%ADD41R,0.07099X0.03162*%
%ADD42O,0.07099X0.03162*%
%ADD43R,0.05524X0.04737*%
%ADD44R,0.03556X0.06312*%
%ADD45R,0.06312X0.01981*%
%ADD46R,0.01981X0.06312*%
%ADD47R,0.05524X0.06312*%
%ADD48R,0.06706X0.03556*%
%ADD49O,0.06706X0.03556*%
%ADD50R,0.05131X0.05918*%
%ADD51R,0.06312X0.08674*%
%ADD52R,0.05524X0.10642*%
%ADD53R,0.06312X0.04737*%
%ADD54R,0.04343X0.06312*%
%ADD55C,0.06312*%
%ADD56C,0.10249*%
%ADD57C,0.15761*%
%ADD58R,0.06312X0.06312*%
%ADD59C,0.06706*%
%ADD60R,0.06706X0.06706*%
%ADD61C,0.05918*%
%ADD62R,0.05918X0.05918*%
%ADD63O,0.05524X0.10249*%
%ADD64O,0.04737X0.09068*%
%ADD65C,0.03753*%
%ADD66R,0.07874X0.09449*%
%ADD67O,0.07874X0.09449*%
%ADD68O,0.07087X0.08661*%
%ADD69R,0.07087X0.08661*%
%ADD70C,0.05524*%
%ADD71C,0.09461*%
%ADD72O,0.12611X0.16548*%
%ADD73C,0.20485*%
%ADD74O,0.08674X0.07887*%
%ADD75R,0.08674X0.07887*%
%ADD76O,0.20485X0.08674*%
%ADD77O,0.08674X0.20485*%
%ADD78C,0.02375*%
D11*
X386890Y574803D02*
G03*
X381890Y569803I0J-5000D01*
G01*
X724409D02*
G03*
X719410Y574803I-5000J0D01*
G01*
X381890Y240158D02*
G03*
X385827Y236221I3937J0D01*
G01*
X719410D02*
G03*
X724409Y241220I0J5000D01*
G01*
X381890Y565866D02*
Y569803D01*
X724409Y565866D02*
Y569803D01*
Y413386D02*
Y565866D01*
X386890Y574803D02*
X719410D01*
X381890Y385827D02*
Y565866D01*
Y240158D02*
Y244094D01*
X385827Y236221D02*
X390827D01*
X692913D02*
X719410D01*
X724409Y241220D02*
Y417323D01*
X381890Y241220D02*
Y385827D01*
X390827Y236221D02*
X692913D01*
D18*
X460236Y320079D02*
D03*
Y327165D02*
D03*
X598425Y336614D02*
D03*
Y343701D02*
D03*
X405512Y274016D02*
D03*
Y281102D02*
D03*
Y296850D02*
D03*
Y303937D02*
D03*
Y319685D02*
D03*
Y326772D02*
D03*
X390551Y376772D02*
D03*
Y383858D02*
D03*
X401575Y385433D02*
D03*
X448425Y442913D02*
D03*
Y435827D02*
D03*
X616535Y537402D02*
D03*
Y530315D02*
D03*
X623350Y530543D02*
D03*
Y537630D02*
D03*
X660630Y540551D02*
D03*
Y533465D02*
D03*
X667323Y540551D02*
D03*
Y533465D02*
D03*
X653937Y367717D02*
D03*
Y360630D02*
D03*
X711811Y297638D02*
D03*
Y304724D02*
D03*
X659842Y462992D02*
D03*
Y470079D02*
D03*
X666535Y462992D02*
D03*
Y470079D02*
D03*
X674803D02*
D03*
Y462992D02*
D03*
X683071Y486221D02*
D03*
Y479134D02*
D03*
X558268Y433858D02*
D03*
Y426772D02*
D03*
X588189Y537402D02*
D03*
Y530315D02*
D03*
X550394Y540551D02*
D03*
Y547638D02*
D03*
X561024Y540551D02*
D03*
Y547638D02*
D03*
X514567Y535039D02*
D03*
Y527953D02*
D03*
X500000Y527953D02*
D03*
Y535039D02*
D03*
X506807Y535118D02*
D03*
Y528031D02*
D03*
X413779Y525984D02*
D03*
X418898D02*
D03*
X425197Y463386D02*
D03*
X430315D02*
D03*
X425197Y456299D02*
D03*
X430315D02*
D03*
X408661Y448819D02*
D03*
X413779D02*
D03*
X398031Y362598D02*
D03*
Y369685D02*
D03*
X404724Y362598D02*
D03*
Y369685D02*
D03*
X405512Y342520D02*
D03*
Y349606D02*
D03*
X572047Y300787D02*
D03*
Y307874D02*
D03*
X583465Y477953D02*
D03*
Y485039D02*
D03*
X576772D02*
D03*
Y477953D02*
D03*
X522835Y437402D02*
D03*
Y444488D02*
D03*
X544095Y484646D02*
D03*
Y491732D02*
D03*
X576772Y461024D02*
D03*
Y453937D02*
D03*
X585039Y433858D02*
D03*
Y426772D02*
D03*
X565354Y434252D02*
D03*
Y427165D02*
D03*
D19*
X572835Y348819D02*
D03*
X454724D02*
D03*
D20*
X597244Y355906D02*
D03*
Y369291D02*
D03*
X524409Y522047D02*
D03*
Y535433D02*
D03*
D21*
X599213Y329173D02*
D03*
Y324173D02*
D03*
Y319173D02*
D03*
Y314173D02*
D03*
X577953D02*
D03*
Y319173D02*
D03*
Y324173D02*
D03*
D22*
Y329173D02*
D03*
D23*
X569685Y329134D02*
D03*
X562598D02*
D03*
X451575Y261417D02*
D03*
X458661D02*
D03*
X444882D02*
D03*
X437795D02*
D03*
X424016D02*
D03*
X431102D02*
D03*
X417323D02*
D03*
X410236D02*
D03*
X706693Y520866D02*
D03*
X713779D02*
D03*
X668504Y510630D02*
D03*
X675591D02*
D03*
X681496Y464961D02*
D03*
Y470079D02*
D03*
X585039Y469291D02*
D03*
X592126D02*
D03*
X592913Y444095D02*
D03*
X585827D02*
D03*
X399213Y509055D02*
D03*
X392126D02*
D03*
X399213Y515748D02*
D03*
X392126D02*
D03*
X425984Y525984D02*
D03*
X433071D02*
D03*
X411024Y456299D02*
D03*
X418110D02*
D03*
X401968Y448819D02*
D03*
X394882D02*
D03*
X424016D02*
D03*
X431102D02*
D03*
X436614Y340945D02*
D03*
X429528D02*
D03*
X422835D02*
D03*
X415748D02*
D03*
X501181Y302362D02*
D03*
X494095D02*
D03*
X522441D02*
D03*
X515354D02*
D03*
X543701Y302362D02*
D03*
X536614D02*
D03*
X569685Y322441D02*
D03*
X562598D02*
D03*
X586221Y307480D02*
D03*
X579134D02*
D03*
X586221Y300787D02*
D03*
X579134D02*
D03*
X661417Y408268D02*
D03*
X668504D02*
D03*
X660236Y281890D02*
D03*
X667323D02*
D03*
X681496D02*
D03*
X674409D02*
D03*
X527559Y484252D02*
D03*
X534646D02*
D03*
D24*
X537008Y309449D02*
D03*
X543701D02*
D03*
X515354D02*
D03*
X522047D02*
D03*
X494488D02*
D03*
X501181D02*
D03*
X398031Y464173D02*
D03*
X401772Y456299D02*
D03*
X394173D02*
D03*
D25*
X439370Y323228D02*
D03*
X420079D02*
D03*
D26*
X427559Y350394D02*
D03*
X437559D02*
D03*
X432559D02*
D03*
X422559D02*
D03*
Y372835D02*
D03*
X427559D02*
D03*
X432559D02*
D03*
D27*
X437559D02*
D03*
D28*
X405118Y376772D02*
D03*
X398031D02*
D03*
D29*
X419685Y473622D02*
D03*
Y492913D02*
D03*
X461417Y534252D02*
D03*
Y553543D02*
D03*
X696850Y278346D02*
D03*
Y297638D02*
D03*
X419685Y396063D02*
D03*
Y415354D02*
D03*
D30*
X399213Y522047D02*
D03*
X391339D02*
D03*
X446063Y327953D02*
D03*
X453937D02*
D03*
D31*
X395276Y529921D02*
D03*
X450000Y320079D02*
D03*
D32*
X504646Y548425D02*
D03*
X506614D02*
D03*
X508583D02*
D03*
X510551D02*
D03*
X512520D02*
D03*
X514488D02*
D03*
X516457D02*
D03*
X518425D02*
D03*
D33*
X524331D02*
D03*
X521181D02*
D03*
X501890D02*
D03*
X498543D02*
D03*
D34*
X619291Y566929D02*
D03*
Y549213D02*
D03*
D35*
X675640Y502324D02*
D03*
D36*
Y478702D02*
D03*
X670640D02*
D03*
X665640D02*
D03*
X660640D02*
D03*
Y502324D02*
D03*
X665640D02*
D03*
X670640D02*
D03*
D37*
X687008Y397244D02*
D03*
X668898D02*
D03*
D38*
X677953Y372441D02*
D03*
D39*
X692717Y330906D02*
D03*
X656299Y331102D02*
D03*
D40*
X640748Y359842D02*
D03*
X614961D02*
D03*
Y325590D02*
D03*
X640748D02*
D03*
X614961Y289370D02*
D03*
X640748D02*
D03*
X614764Y254724D02*
D03*
X640551D02*
D03*
D41*
X683033Y292076D02*
D03*
D42*
X659411D02*
D03*
Y297077D02*
D03*
Y302077D02*
D03*
Y307077D02*
D03*
X683033D02*
D03*
Y302077D02*
D03*
Y297077D02*
D03*
D43*
X711811Y283071D02*
D03*
Y289764D02*
D03*
X442913Y509055D02*
D03*
Y515748D02*
D03*
X427953Y433858D02*
D03*
Y440551D02*
D03*
X390551Y362992D02*
D03*
Y369685D02*
D03*
D44*
X717717Y511811D02*
D03*
X713779D02*
D03*
X709842D02*
D03*
X717717Y501575D02*
D03*
X713779D02*
D03*
X709842D02*
D03*
D45*
X564961Y448228D02*
D03*
Y450197D02*
D03*
Y452165D02*
D03*
Y454134D02*
D03*
Y456102D02*
D03*
Y458071D02*
D03*
Y460039D02*
D03*
Y462008D02*
D03*
Y463976D02*
D03*
Y465945D02*
D03*
Y467913D02*
D03*
Y469882D02*
D03*
X529528Y469882D02*
D03*
Y467913D02*
D03*
Y465945D02*
D03*
Y463976D02*
D03*
Y462008D02*
D03*
Y460039D02*
D03*
Y458071D02*
D03*
Y456102D02*
D03*
Y454134D02*
D03*
Y452165D02*
D03*
Y450197D02*
D03*
Y448228D02*
D03*
D46*
X536417Y441339D02*
D03*
X538386D02*
D03*
X540354D02*
D03*
X542323D02*
D03*
X544291D02*
D03*
X546260D02*
D03*
X548228D02*
D03*
X550197D02*
D03*
X552165D02*
D03*
X554134D02*
D03*
X556102D02*
D03*
X558071D02*
D03*
X558071Y476772D02*
D03*
X556102D02*
D03*
X554134D02*
D03*
X552165D02*
D03*
X550197D02*
D03*
X548228D02*
D03*
X546260D02*
D03*
X544291D02*
D03*
X542323D02*
D03*
X540354D02*
D03*
X538386D02*
D03*
X536417D02*
D03*
D47*
X592520Y451575D02*
D03*
X585433D02*
D03*
X592520Y461811D02*
D03*
X585433D02*
D03*
D48*
X435039Y509449D02*
D03*
X419685Y432283D02*
D03*
D49*
X435039Y518898D02*
D03*
X407480Y509449D02*
D03*
Y518898D02*
D03*
X419685Y441732D02*
D03*
X392126Y432283D02*
D03*
Y441732D02*
D03*
D50*
X390551Y336221D02*
D03*
X397638D02*
D03*
X390551Y349606D02*
D03*
X397638D02*
D03*
X390551Y313386D02*
D03*
X397638D02*
D03*
X390551Y326772D02*
D03*
X397638D02*
D03*
X390551Y290551D02*
D03*
X397638D02*
D03*
X390551Y303937D02*
D03*
X397638D02*
D03*
X390551Y267717D02*
D03*
X397638D02*
D03*
X390551Y281102D02*
D03*
X397638D02*
D03*
D51*
X429134Y250394D02*
D03*
X411417D02*
D03*
X454528D02*
D03*
X436811D02*
D03*
D52*
X690158Y418504D02*
D03*
X676772D02*
D03*
D53*
X591339Y477953D02*
D03*
Y485827D02*
D03*
D54*
X578740Y433071D02*
D03*
X571654D02*
D03*
D55*
X445276Y296457D02*
D03*
X425591D02*
D03*
X479153Y279882D02*
D03*
X484154Y289724D02*
D03*
X494153D02*
D03*
X489153Y279724D02*
D03*
X504153Y289724D02*
D03*
X499154Y279724D02*
D03*
X509154D02*
D03*
X551594Y280276D02*
D03*
X556595Y290118D02*
D03*
X566595D02*
D03*
X561594Y280118D02*
D03*
X576594Y290118D02*
D03*
X571594Y280118D02*
D03*
X581595D02*
D03*
D56*
X465945Y242520D02*
D03*
X527362D02*
D03*
X538386Y242913D02*
D03*
X599803D02*
D03*
D57*
X518898Y254724D02*
D03*
X474409D02*
D03*
X591339Y255118D02*
D03*
X546850D02*
D03*
D58*
X514153Y289724D02*
D03*
X586594Y290118D02*
D03*
D59*
X399213Y479134D02*
D03*
Y544095D02*
D03*
X702362Y429134D02*
D03*
X708268Y260630D02*
D03*
X399213Y399213D02*
D03*
D60*
X399213Y488976D02*
D03*
Y553937D02*
D03*
X702362Y419291D02*
D03*
X708268Y250787D02*
D03*
X399213Y409055D02*
D03*
D61*
X448425Y534488D02*
D03*
X435827D02*
D03*
X427165D02*
D03*
X418504D02*
D03*
Y554488D02*
D03*
X427165D02*
D03*
X435827D02*
D03*
D62*
X448425D02*
D03*
D63*
X494449Y568701D02*
D03*
X528465D02*
D03*
D64*
X494449Y552362D02*
D03*
X528465D02*
D03*
D65*
X522835Y554331D02*
D03*
X500079D02*
D03*
D66*
X570236Y560236D02*
D03*
D67*
X560236D02*
D03*
X540236D02*
D03*
X550236D02*
D03*
D68*
X583465Y564567D02*
D03*
X593465D02*
D03*
X583543Y551968D02*
D03*
X593543D02*
D03*
D69*
X603465Y564567D02*
D03*
X603543Y551968D02*
D03*
D70*
X622835Y558071D02*
D03*
X615748D02*
D03*
X420276Y246850D02*
D03*
Y253937D02*
D03*
X445669Y246850D02*
D03*
Y253937D02*
D03*
D71*
X666535Y553543D02*
D03*
X681496D02*
D03*
X651575D02*
D03*
D72*
X694882Y565354D02*
D03*
X638189D02*
D03*
D73*
X712598Y334646D02*
D03*
X480315Y559055D02*
D03*
X712598D02*
D03*
X468504Y307087D02*
D03*
X393701Y251969D02*
D03*
D74*
X459842Y425276D02*
D03*
X709842Y475276D02*
D03*
Y465276D02*
D03*
Y455276D02*
D03*
Y445276D02*
D03*
X459842Y435276D02*
D03*
Y445276D02*
D03*
Y455276D02*
D03*
Y465276D02*
D03*
Y475276D02*
D03*
Y485276D02*
D03*
Y495276D02*
D03*
D75*
X709842Y485276D02*
D03*
X459842Y505276D02*
D03*
D76*
X670472Y245669D02*
D03*
Y271654D02*
D03*
D77*
X688189Y258661D02*
D03*
D78*
X664696Y359048D02*
D03*
X671260Y359449D02*
D03*
X677559D02*
D03*
X683858D02*
D03*
X690158D02*
D03*
X690422Y366149D02*
D03*
X684123D02*
D03*
X677823D02*
D03*
X671524D02*
D03*
X664961Y365748D02*
D03*
X665225Y378748D02*
D03*
X671788Y379149D02*
D03*
X678088D02*
D03*
X684387D02*
D03*
X690686D02*
D03*
X690422Y372448D02*
D03*
X684123D02*
D03*
X677823D02*
D03*
X671524D02*
D03*
X664961Y372047D02*
D03*
X690422Y385047D02*
D03*
X684123D02*
D03*
X677823D02*
D03*
X671524D02*
D03*
X664961Y384646D02*
D03*
M02*
